<svg xmlns="http://www.w3.org/2000/svg" width="731.67" height="504.365" viewBox="0 0 731.67 504.365">
  <g id="Group_3" data-name="Group 3" transform="translate(-4204 117)">
    <g id="undraw_grand_slam_re_myai" transform="translate(4204 -117)">
      <path id="Path_1" data-name="Path 1" d="M0,489.977a64.186,64.186,0,0,1,1.19,9.19H730.48a64.184,64.184,0,0,1,1.19-9.19c0-.66-.53-1.19-1.19,6.81H1.19C.53,488.787,0,489.317,0,489.977Z" fill="#3f3d56"/>
      <path id="Path_2" data-name="Path 2" d="M422.055,295.394l9.352,178.895,23.37-2.8,12.8-184.932Z" fill="#ffb6b6"/>
      <path id="Path_3" data-name="Path 3" d="M457.847,463.469s13,34-4,36-66,11-66-2,25-18,25-18,12-19,17-17,9,13,18,10S457.847,463.469,457.847,463.469Z" fill="#2f2e41"/>
      <rect id="Rectangle_3" data-name="Rectangle 3" width="29" height="37" transform="translate(394.347 58.969)" fill="#ffb6b6"/>
      <circle id="Ellipse_1" data-name="Ellipse 1" cx="33.25" cy="33.25" r="33.25" transform="translate(374.847 11.469)" fill="#ffb6b6"/>
      <path id="Path_4" data-name="Path 4" d="M444.847,180.469l4-33,19,1,4,39,15.741,72.223.038-.01-.017.006,4.573,19.723a27.849,27.849,0,0,1,5.605,11.906c2.381,10.88-1.3,20.924-8.224,22.439S475.1,307.68,472.726,296.8a27.865,27.865,0,0,1,.124-13.163l-4.268-14.929-23.735-88.242Z" fill="#ffb6b6"/>
      <path id="Path_5" data-name="Path 5" d="M392.347,84.969h35l34,18-12,72,14,45s-75,23-98,13l10-58-7-77Z" fill="#6c63ff"/>
      <path id="Path_6" data-name="Path 6" d="M454.847,103.469s12-4,14,3,7,49,7,49l-30,1,9-53Z" fill="#6c63ff"/>
      <path id="Path_7" data-name="Path 7" d="M291.04,235.052a21.689,21.689,0,0,1-3.53-.28c-4.628-.765-7.955-3.012-9.368-6.327s-.731-7.271,1.921-11.139a27.349,27.349,0,0,1,11.853-9.221,28.567,28.567,0,0,1,13.047-2.382l41.411-21.552,3-31.03,22.915-9.375,3.186,42.209A16.355,16.355,0,0,1,365.4,202.331l-52.265,22.5a28.5,28.5,0,0,1-10.766,7.777,29.257,29.257,0,0,1-11.332,2.446Z" fill="#ffb6b6"/>
      <path id="Path_8" data-name="Path 8" d="M376.847,97.469s-20-7-26,15a129.289,129.289,0,0,0-4,42l34-3Z" fill="#6c63ff"/>
      <g id="Group_2" data-name="Group 2">
        <path id="Path_11" data-name="Path 11" d="M485.652,317.561l-12.667-3.09,24.833-82.361-3.891-17.055,27.234,6.8-13.2,14.622Z" fill="#3f3d56"/>
        <path id="Path_12" data-name="Path 12" d="M553.062,187.05c8.5-25.984.068-52.058-18.829-58.238s-41.106,9.873-49.6,35.857-.068,52.058,18.829,58.238S544.564,213.033,553.062,187.05Zm-3.8-1.243c-7.554,23.1-27.295,37.366-44.092,31.873s-24.291-28.671-16.737-51.768,27.3-37.366,44.092-31.873,24.291,28.671,16.737,51.768Z" fill="#3f3d56"/>
      </g>
      <path id="Path_13" data-name="Path 13" d="M440.306,44.739l5.77,15.2L460.05,85.01a148.394,148.394,0,0,1,18.175,85.607h0l-37.095-1.824-4.293-12.154c-10.827-30.65-14.806-63.129-13.465-95.608.641-15.541-6.14-27.343-21.025-35.062l37.96,18.77h0Z" fill="#2f2e41"/>
      <path id="Path_14" data-name="Path 14" d="M444.347,55.969l-16-15s-21-7-30-13c-5.694-3.8-14.191.414-19.664,4.019a11.362,11.362,0,0,1-11.7.51h0a6,6,0,0,1-2.712-7.448h0a22.928,22.928,0,0,1,26.075-14.082h0l7.892-5.637a28.626,28.626,0,0,1,27.915-3.018l5.175,2.218a28.626,28.626,0,0,1,12.757,10.76h0a28.626,28.626,0,0,1,4.071,20.991l-3.81,19.685h0Z" fill="#6c63ff"/>
      <path id="Path_15" data-name="Path 15" d="M354.927,297.985l-9.215,178.9,23.534-.369L401.122,293.9Z" fill="#ffb6b6"/>
      <path id="Path_16" data-name="Path 16" d="M460.157,212.394s20,31,18,75c0,0-56,35-126,14,0,0,7-62,16-72l92-17Z" fill="#2f2e41"/>
      <path id="Path_17" data-name="Path 17" d="M373.847,463.469s13,34-4,36-66,11-66-2,25-18,25-18,12-19,17-17,9,13,18,10S373.847,463.469,373.847,463.469Z" fill="#2f2e41"/>
    </g>
    <g id="badminton-shuttlecock-svgrepo-com" transform="translate(4468.16 40.927)">
      <path id="Path_18" data-name="Path 18" d="M1.994,32.831l3.239-3.239,1.561,1.561L22.181,0h1.4l3.749,3.749.136,7.416,6.7-.637.982.982-.637,6.7,7.417.136L45.68,22.1v1.4L14.527,38.886l1.561,1.561-3.239,3.239a6.809,6.809,0,0,1-9.629,0L1.994,42.46A6.809,6.809,0,0,1,1.994,32.831ZM15.6,20.311l1.531,1.531L21.1,16.586l-2.45-2.45Zm3.74,3.74,2.287,2.287,5.255-3.969L23.31,18.8Zm4.918-19L23.508,4.3l-3.41,6.9,2.886,2.886,1.406-1.862Zm2.409,9.3L25.194,16.3l4.184,4.184,1.952-1.474.489-5.151Zm7.805,11.232,6.9-3.41-.752-.751-7.176-.131L31.587,22.7Zm-9.1,4.5,6.175-3.05-2.45-2.45-5.255,3.969Zm-2.93,1.447-1.095-1.094-6.257,4.726Zm-3.3-3.3-1.677-1.677L12.283,33.4Zm-3.887-3.887-1.094-1.094-3.631,7.351Z" transform="translate(0)" fill="#3f3d56"/>
    </g>
  </g>
</svg>
